HIERARCHY
ROOT Hips
{
	OFFSET	0.00	0.00	0.00
	CHANNELS 6 Xposition Yposition Zposition Zrotation Xrotation Yrotation
	JOINT LeftUpLeg
	{
		OFFSET	 0.126116	-0.065224	 0.014019
		CHANNELS 3 Zrotation Xrotation Yrotation
		JOINT LeftLeg
		{
			OFFSET	 0.000000	 0.569914	 0.000000
			CHANNELS 3 Zrotation Xrotation Yrotation
			JOINT LeftFoot
			{
				OFFSET	 0.000000	 0.544423	 0.000000
				CHANNELS 3 Zrotation Xrotation Yrotation
				JOINT LeftToeBase
				{
					OFFSET	 0.000000	 0.207117	 0.000000
					CHANNELS 3 Zrotation Xrotation Yrotation
					End Site
					{
						OFFSET	 0.000000	 0.207117	 0.000000
					}
				}
			}
		}
	}
	JOINT RightUpLeg
	{
		OFFSET	-0.124023	-0.065224	 0.008373
		CHANNELS 3 Zrotation Xrotation Yrotation
		JOINT RightLeg
		{
			OFFSET	 0.000000	 0.570047	 0.000000
			CHANNELS 3 Zrotation Xrotation Yrotation
			JOINT RightFoot
			{
				OFFSET	 0.000000	 0.544354	 0.000000
				CHANNELS 3 Zrotation Xrotation Yrotation
				JOINT RightToeBase
				{
					OFFSET	 0.000000	 0.207540	 0.000000
					CHANNELS 3 Zrotation Xrotation Yrotation
					End Site
					{
						OFFSET	 0.000000	 0.207540	 0.000000
					}
				}
			}
		}
	}
	JOINT Spine
	{
		OFFSET	 0.000184	 0.117403	 0.007763
		CHANNELS 3 Zrotation Xrotation Yrotation
		JOINT Spine1
		{
			OFFSET	 0.000000	 0.137269	 0.000000
			CHANNELS 3 Zrotation Xrotation Yrotation
			JOINT Spine2
			{
				OFFSET	 0.000000	 0.156879	 0.000000
				CHANNELS 3 Zrotation Xrotation Yrotation
				JOINT LeftShoulder
				{
					OFFSET	 0.080501	 0.160143	 0.002496
					CHANNELS 3 Zrotation Xrotation Yrotation
					JOINT LeftArm
					{
						OFFSET	 0.000000	 0.164363	 0.000000
						CHANNELS 3 Zrotation Xrotation Yrotation
						JOINT LeftForeArm
						{
							OFFSET	 0.000000	 0.364576	 0.000000
							CHANNELS 3 Zrotation Xrotation Yrotation
							JOINT LeftHand
							{
								OFFSET	 0.000000	 0.360812	 0.000000
								CHANNELS 3 Zrotation Xrotation Yrotation
								JOINT LeftHandIndex1
								{
									OFFSET	 0.000000	 0.086006	 0.000000
									CHANNELS 3 Zrotation Xrotation Yrotation
									JOINT LeftHandIndex2
									{
										OFFSET	 0.000000	 0.047237	 0.000000
										CHANNELS 3 Zrotation Xrotation Yrotation
										JOINT LeftHandIndex3
										{
											OFFSET	-0.004284	 0.038165	 0.000551
											CHANNELS 3 Zrotation Xrotation Yrotation
											End Site
											{
												OFFSET	-0.004284	 0.038165	 0.000551
											}
										}
									}
								}
							}
						}
					}
				}
				JOINT Neck
				{
					OFFSET	 0.000000	 0.176489	 0.000000
					CHANNELS 3 Zrotation Xrotation Yrotation
					JOINT Head
					{
						OFFSET	 0.000000	 0.077941	 0.001747
						CHANNELS 3 Zrotation Xrotation Yrotation
						End Site
						{
							OFFSET	 0.000000	 0.077941	 0.001747
						}
					}
				}
				JOINT RightShoulder
				{
					OFFSET	-0.080363	 0.159706	-0.000306
					CHANNELS 3 Zrotation Xrotation Yrotation
					JOINT RightArm
					{
						OFFSET	 0.000000	 0.164196	 0.000000
						CHANNELS 3 Zrotation Xrotation Yrotation
						JOINT RightForeArm
						{
							OFFSET	 0.000000	 0.365611	 0.000000
							CHANNELS 3 Zrotation Xrotation Yrotation
							JOINT RightHand
							{
								OFFSET	 0.000000	 0.360648	 0.000000
								CHANNELS 3 Zrotation Xrotation Yrotation
								JOINT RightHandIndex1
								{
									OFFSET	 0.000000	 0.069977	 0.000000
									CHANNELS 3 Zrotation Xrotation Yrotation
									JOINT RightHandIndex2
									{
										OFFSET	 0.000000	 0.052305	 0.000000
										CHANNELS 3 Zrotation Xrotation Yrotation
										JOINT RightHandIndex3
										{
											OFFSET	 0.009002	 0.042196	 0.000782
											CHANNELS 3 Zrotation Xrotation Yrotation
											End Site
											{
												OFFSET	 0.009002	 0.042196	 0.000782
											}
										}
									}
								}
							}
						}
					}
				}
			}
		}
	}
}
MOTION
Frames:    4
Frame Time: 0.03333334
-0.000515	 1.203379	-4.406797	-0.274083	 2.776177	-172.016000	-166.150000	-0.729406	-27.107140	 13.995350	-61.274300	 13.992620	-29.675060	 66.949310	 25.531460	 3.047926	 46.601160	-3.223554	 173.977600	 25.533170	 29.233600	-3.112050	-35.828930	 4.235154	-28.761460	 70.835940	 19.750320	-1.579524	 32.060390	 2.842430	 2.878814	 7.996430	 1.354723	-3.463625	 3.061341	 2.941941	 4.530106	-3.634347	-15.208250	-120.451200	 7.980397	 94.234310	 36.331700	 7.134275	-6.508622	 7.496925	-0.229357	 3.539145	 22.060170	 34.946520	-13.620160	 5.005476	 23.107400	-2.049073	-5.873874	 26.324990	 2.919232	 5.585545	 10.378580	-0.072369	 0.015596	-5.015378	-0.023127	-1.823252	-1.684140	-6.226517	 119.662200	-1.253485	-90.284600	-0.689273	 41.698830	 1.213167	-8.164436	-0.200042	-3.563059	 2.612962	 9.149496	 38.783650	-2.143748	 14.621050	 1.194063	 13.733050	 34.215790	-8.160714	-8.490579	 12.030300	-0.457878
 0.004324	 1.236996	-4.739765	-0.484474	 2.588139	-176.549000	-161.156500	 26.382960	-45.195830	 17.911460	-66.684960	 14.068030	-10.012270	 71.677730	 16.747590	 1.450422	 30.464300	-2.782964	 177.678800	 6.135518	 26.467100	-2.486061	-29.979190	-1.023071	-53.716730	 77.298980	 49.956550	-1.688822	 33.379360	 2.896370	 4.220430	 7.110815	-13.291730	-3.788875	 3.824022	 5.075263	 4.325797	-4.157148	-14.542520	-120.136800	 6.193493	 93.342650	-6.332428	 45.150810	 14.055150	 93.181590	-2.200631	 20.478350	-45.415630	 7.324340	 35.086940	 5.035981	 26.484180	-2.163919	-5.906724	 29.325290	 3.269200	 5.730793	 13.884560	-0.027934	 0.109116	-4.835063	-0.418250	-2.338924	-2.156894	-6.987239	 119.750900	 0.396557	-91.070620	-22.189580	 47.145520	 10.199640	-20.149370	-0.198417	-17.538160	 0.536782	-18.479950	 38.417410	-2.706686	 18.979260	 1.471127	 14.439440	 38.546720	-9.510177	-8.520790	 15.854370	-0.699728
-0.009835	 1.190937	-5.119343	-2.402528	 0.360906	 177.986300	 179.209000	 32.994150	-37.869530	 0.671612	-5.053789	-8.861509	-21.929810	 66.160320	 38.473490	 1.243236	 27.778190	-2.692578	 174.461100	-10.553690	 20.101510	-2.518965	-30.306050	-8.789589	-64.635450	 75.011030	 72.815130	-3.641561	 51.125740	 4.068774	 1.915029	 6.220047	-22.144170	-4.089017	 4.771293	 6.936032	 3.940021	-4.810594	-13.677190	-119.620800	 3.212901	 91.876070	 25.940700	 39.002350	-14.376800	 34.207980	-0.250991	 33.867280	-20.492720	 3.153187	 66.395680	 4.842162	 27.943370	-1.894428	-5.998374	 33.788070	 3.815137	 5.970942	 19.686990	 0.026785	 0.051422	-4.974149	-0.805169	-2.453466	-3.022590	-7.917025	 119.530500	 1.872015	-91.760020	-30.048870	 25.575930	 10.136790	-34.537490	-0.198997	-33.865430	-7.090126	-22.420760	 23.231600	-2.917684	 21.874340	 1.553896	 15.163510	 42.122140	-10.749320	-8.534542	 19.699290	-0.946023
-0.036124	 1.179585	-5.490650	-5.200633	 1.257966	 176.517500	 179.558800	 30.657010	-37.807800	 4.100348	-28.345120	 0.269575	 5.568747	 65.257390	 12.538510	 1.411863	 29.974530	-2.765464	 165.842600	-15.241760	 17.053750	-3.841179	-41.698330	 2.581801	 16.607310	 40.316300	-3.716388	-13.539680	 69.849370	 19.876260	-0.144659	 9.058676	-17.481900	-4.751906	 4.390670	 6.915245	 3.801491	-5.196922	-13.478750	-120.876100	 3.988369	 92.307790	 28.427970	 42.298130	-15.805840	 41.851480	-0.220051	 43.270650	-22.900750	-0.001933	 81.543960	 4.352562	 20.313710	-1.512148	-5.876191	 26.624490	 2.953670	 5.659089	 12.151000	-0.048845	-0.108800	-5.246751	-0.711218	-1.989203	-2.359008	-8.092576	 119.335700	 1.128957	-91.397580	-9.178574	 29.330730	 1.838226	-70.533230	-0.785373	-44.184760	 13.536420	-16.431370	 7.477215	-2.765550	 25.247690	 1.491794	 16.030840	 45.640220	-12.111580	-8.531549	 23.273210	-1.179931
